<?xml version="1.0" encoding="utf-8"?>
<!-- Generator: Adobe Illustrator 16.0.0, SVG Export Plug-In . SVG Version: 6.00 Build 0)  -->
<!DOCTYPE svg PUBLIC "-//W3C//DTD SVG 1.1//EN" "http://www.w3.org/Graphics/SVG/1.1/DTD/svg11.dtd">
<svg version="1.1" id="Capa_1" xmlns="http://www.w3.org/2000/svg" xmlns:xlink="http://www.w3.org/1999/xlink" x="0px" y="0px"
	 width="512px" height="512px" viewBox="0 0 512 512" enable-background="new 0 0 512 512" xml:space="preserve">
<g>
	<path fill="#818181" d="M499.837,131.451l-24.643-24.65c-8.539-8.104-18.514-12.156-29.897-12.156
		c-11.62,0-21.475,4.053-29.582,12.156L256,266.52L96.287,106.805c-8.105-8.103-17.963-12.156-29.578-12.156
		c-11.391,0-21.362,4.053-29.902,12.156l-24.319,24.65C4.161,139.776,0,149.748,0,161.36c0,11.829,4.166,21.688,12.486,29.574
		L226.421,404.87c7.89,8.321,17.744,12.485,29.578,12.485c11.612,0,21.582-4.162,29.901-12.485l213.936-213.936
		c8.106-8.108,12.163-17.965,12.163-29.574C512,149.964,507.943,139.999,499.837,131.451z"/>
</g>
</svg>
